<svg xmlns="http://www.w3.org/2000/svg" fill="#000" viewBox="0 0 512 512"><path d="M0,0h8v8h-8z M8,0h8v8h-8z M16,0h8v8h-8z M24,0h8v8h-8z M32,0h8v8h-8z M40,0h8v8h-8z M48,0h8v8h-8z M56,0h8v8h-8z M64,0h8v8h-8z M72,0h8v8h-8z M80,0h8v8h-8z M88,0h8v8h-8z M96,0h8v8h-8z M104,0h8v8h-8z M112,0h8v8h-8z M120,0h8v8h-8z M128,0h8v8h-8z M136,0h8v8h-8z M144,0h8v8h-8z M152,0h8v8h-8z M160,0h8v8h-8z M168,0h8v8h-8z M176,0h8v8h-8z M184,0h8v8h-8z M192,0h8v8h-8z M200,0h8v8h-8z M208,0h8v8h-8z M216,0h8v8h-8z M224,0h8v8h-8z M232,0h8v8h-8z M240,0h8v8h-8z M248,0h8v8h-8z M256,0h8v8h-8z M264,0h8v8h-8z M272,0h8v8h-8z M280,0h8v8h-8z M288,0h8v8h-8z M296,0h8v8h-8z M304,0h8v8h-8z M312,0h8v8h-8z M320,0h8v8h-8z M328,0h8v8h-8z M336,0h8v8h-8z M344,0h8v8h-8z M352,0h8v8h-8z M360,0h8v8h-8z M368,0h8v8h-8z M376,0h8v8h-8z M384,0h8v8h-8z M392,0h8v8h-8z M400,0h8v8h-8z M408,0h8v8h-8z M416,0h8v8h-8z M424,0h8v8h-8z M432,0h8v8h-8z M440,0h8v8h-8z M448,0h8v8h-8z M456,0h8v8h-8z M464,0h8v8h-8z M472,0h8v8h-8z M480,0h8v8h-8z M488,0h8v8h-8z M496,0h8v8h-8z M504,0h8v8h-8z M0,8h8v8h-8z M8,8h8v8h-8z M16,8h8v8h-8z M24,8h8v8h-8z M32,8h8v8h-8z M40,8h8v8h-8z M48,8h8v8h-8z M56,8h8v8h-8z M64,8h8v8h-8z M72,8h8v8h-8z M80,8h8v8h-8z M88,8h8v8h-8z M96,8h8v8h-8z M104,8h8v8h-8z M112,8h8v8h-8z M120,8h8v8h-8z M128,8h8v8h-8z M136,8h8v8h-8z M144,8h8v8h-8z M152,8h8v8h-8z M160,8h8v8h-8z M168,8h8v8h-8z M176,8h8v8h-8z M184,8h8v8h-8z M192,8h8v8h-8z M200,8h8v8h-8z M208,8h8v8h-8z M216,8h8v8h-8z M224,8h8v8h-8z M232,8h8v8h-8z M240,8h8v8h-8z M248,8h8v8h-8z M256,8h8v8h-8z M264,8h8v8h-8z M272,8h8v8h-8z M280,8h8v8h-8z M288,8h8v8h-8z M296,8h8v8h-8z M304,8h8v8h-8z M312,8h8v8h-8z M320,8h8v8h-8z M328,8h8v8h-8z M336,8h8v8h-8z M344,8h8v8h-8z M352,8h8v8h-8z M360,8h8v8h-8z M368,8h8v8h-8z M376,8h8v8h-8z M384,8h8v8h-8z M392,8h8v8h-8z M400,8h8v8h-8z M408,8h8v8h-8z M416,8h8v8h-8z M424,8h8v8h-8z M432,8h8v8h-8z M440,8h8v8h-8z M448,8h8v8h-8z M456,8h8v8h-8z M464,8h8v8h-8z M472,8h8v8h-8z M480,8h8v8h-8z M488,8h8v8h-8z M496,8h8v8h-8z M504,8h8v8h-8z M0,16h8v8h-8z M8,16h8v8h-8z M16,16h8v8h-8z M24,16h8v8h-8z M32,16h8v8h-8z M40,16h8v8h-8z M48,16h8v8h-8z M56,16h8v8h-8z M64,16h8v8h-8z M72,16h8v8h-8z M80,16h8v8h-8z M88,16h8v8h-8z M96,16h8v8h-8z M104,16h8v8h-8z M112,16h8v8h-8z M120,16h8v8h-8z M128,16h8v8h-8z M136,16h8v8h-8z M144,16h8v8h-8z M152,16h8v8h-8z M160,16h8v8h-8z M168,16h8v8h-8z M176,16h8v8h-8z M184,16h8v8h-8z M192,16h8v8h-8z M200,16h8v8h-8z M208,16h8v8h-8z M216,16h8v8h-8z M224,16h8v8h-8z M232,16h8v8h-8z M240,16h8v8h-8z M248,16h8v8h-8z M256,16h8v8h-8z M264,16h8v8h-8z M272,16h8v8h-8z M280,16h8v8h-8z M288,16h8v8h-8z M296,16h8v8h-8z M304,16h8v8h-8z M312,16h8v8h-8z M320,16h8v8h-8z M328,16h8v8h-8z M336,16h8v8h-8z M344,16h8v8h-8z M352,16h8v8h-8z M360,16h8v8h-8z M368,16h8v8h-8z M376,16h8v8h-8z M384,16h8v8h-8z M392,16h8v8h-8z M400,16h8v8h-8z M408,16h8v8h-8z M416,16h8v8h-8z M424,16h8v8h-8z M432,16h8v8h-8z M440,16h8v8h-8z M448,16h8v8h-8z M456,16h8v8h-8z M464,16h8v8h-8z M472,16h8v8h-8z M480,16h8v8h-8z M488,16h8v8h-8z M496,16h8v8h-8z M504,16h8v8h-8z M0,24h8v8h-8z M8,24h8v8h-8z M16,24h8v8h-8z M24,24h8v8h-8z M32,24h8v8h-8z M40,24h8v8h-8z M48,24h8v8h-8z M56,24h8v8h-8z M64,24h8v8h-8z M72,24h8v8h-8z M80,24h8v8h-8z M88,24h8v8h-8z M96,24h8v8h-8z M104,24h8v8h-8z M112,24h8v8h-8z M120,24h8v8h-8z M128,24h8v8h-8z M136,24h8v8h-8z M144,24h8v8h-8z M152,24h8v8h-8z M160,24h8v8h-8z M168,24h8v8h-8z M176,24h8v8h-8z M184,24h8v8h-8z M192,24h8v8h-8z M200,24h8v8h-8z M208,24h8v8h-8z M216,24h8v8h-8z M224,24h8v8h-8z M232,24h8v8h-8z M240,24h8v8h-8z M248,24h8v8h-8z M256,24h8v8h-8z M264,24h8v8h-8z M272,24h8v8h-8z M280,24h8v8h-8z M288,24h8v8h-8z M296,24h8v8h-8z M304,24h8v8h-8z M312,24h8v8h-8z M320,24h8v8h-8z M328,24h8v8h-8z M336,24h8v8h-8z M344,24h8v8h-8z M352,24h8v8h-8z M360,24h8v8h-8z M368,24h8v8h-8z M376,24h8v8h-8z M384,24h8v8h-8z M392,24h8v8h-8z M400,24h8v8h-8z M408,24h8v8h-8z M416,24h8v8h-8z M424,24h8v8h-8z M432,24h8v8h-8z M440,24h8v8h-8z M448,24h8v8h-8z M456,24h8v8h-8z M464,24h8v8h-8z M472,24h8v8h-8z M480,24h8v8h-8z M488,24h8v8h-8z M496,24h8v8h-8z M504,24h8v8h-8z M0,32h8v8h-8z M8,32h8v8h-8z M16,32h8v8h-8z M24,32h8v8h-8z M32,32h8v8h-8z M40,32h8v8h-8z M48,32h8v8h-8z M56,32h8v8h-8z M64,32h8v8h-8z M72,32h8v8h-8z M80,32h8v8h-8z M88,32h8v8h-8z M96,32h8v8h-8z M104,32h8v8h-8z M112,32h8v8h-8z M120,32h8v8h-8z M128,32h8v8h-8z M136,32h8v8h-8z M144,32h8v8h-8z M152,32h8v8h-8z M160,32h8v8h-8z M168,32h8v8h-8z M176,32h8v8h-8z M184,32h8v8h-8z M192,32h8v8h-8z M200,32h8v8h-8z M208,32h8v8h-8z M216,32h8v8h-8z M224,32h8v8h-8z M232,32h8v8h-8z M240,32h8v8h-8z M248,32h8v8h-8z M256,32h8v8h-8z M264,32h8v8h-8z M272,32h8v8h-8z M280,32h8v8h-8z M288,32h8v8h-8z M296,32h8v8h-8z M304,32h8v8h-8z M312,32h8v8h-8z M320,32h8v8h-8z M328,32h8v8h-8z M336,32h8v8h-8z M344,32h8v8h-8z M352,32h8v8h-8z M360,32h8v8h-8z M368,32h8v8h-8z M376,32h8v8h-8z M384,32h8v8h-8z M392,32h8v8h-8z M400,32h8v8h-8z M408,32h8v8h-8z M416,32h8v8h-8z M424,32h8v8h-8z M432,32h8v8h-8z M440,32h8v8h-8z M448,32h8v8h-8z M456,32h8v8h-8z M464,32h8v8h-8z M472,32h8v8h-8z M480,32h8v8h-8z M488,32h8v8h-8z M496,32h8v8h-8z M504,32h8v8h-8z M0,40h8v8h-8z M8,40h8v8h-8z M16,40h8v8h-8z M24,40h8v8h-8z M32,40h8v8h-8z M40,40h8v8h-8z M48,40h8v8h-8z M56,40h8v8h-8z M64,40h8v8h-8z M72,40h8v8h-8z M80,40h8v8h-8z M88,40h8v8h-8z M96,40h8v8h-8z M104,40h8v8h-8z M112,40h8v8h-8z M120,40h8v8h-8z M128,40h8v8h-8z M136,40h8v8h-8z M144,40h8v8h-8z M152,40h8v8h-8z M160,40h8v8h-8z M168,40h8v8h-8z M176,40h8v8h-8z M184,40h8v8h-8z M192,40h8v8h-8z M200,40h8v8h-8z M208,40h8v8h-8z M216,40h8v8h-8z M224,40h8v8h-8z M232,40h8v8h-8z M240,40h8v8h-8z M248,40h8v8h-8z M256,40h8v8h-8z M264,40h8v8h-8z M272,40h8v8h-8z M280,40h8v8h-8z M288,40h8v8h-8z M296,40h8v8h-8z M304,40h8v8h-8z M312,40h8v8h-8z M320,40h8v8h-8z M328,40h8v8h-8z M336,40h8v8h-8z M344,40h8v8h-8z M352,40h8v8h-8z M360,40h8v8h-8z M368,40h8v8h-8z M376,40h8v8h-8z M384,40h8v8h-8z M392,40h8v8h-8z M400,40h8v8h-8z M408,40h8v8h-8z M416,40h8v8h-8z M424,40h8v8h-8z M432,40h8v8h-8z M440,40h8v8h-8z M448,40h8v8h-8z M456,40h8v8h-8z M464,40h8v8h-8z M472,40h8v8h-8z M480,40h8v8h-8z M488,40h8v8h-8z M496,40h8v8h-8z M504,40h8v8h-8z M0,48h8v8h-8z M8,48h8v8h-8z M16,48h8v8h-8z M24,48h8v8h-8z M32,48h8v8h-8z M40,48h8v8h-8z M48,48h8v8h-8z M56,48h8v8h-8z M64,48h8v8h-8z M72,48h8v8h-8z M80,48h8v8h-8z M88,48h8v8h-8z M96,48h8v8h-8z M104,48h8v8h-8z M112,48h8v8h-8z M120,48h8v8h-8z M128,48h8v8h-8z M136,48h8v8h-8z M144,48h8v8h-8z M152,48h8v8h-8z M160,48h8v8h-8z M168,48h8v8h-8z M176,48h8v8h-8z M184,48h8v8h-8z M192,48h8v8h-8z M200,48h8v8h-8z M208,48h8v8h-8z M216,48h8v8h-8z M224,48h8v8h-8z M232,48h8v8h-8z M240,48h8v8h-8z M248,48h8v8h-8z M256,48h8v8h-8z M264,48h8v8h-8z M272,48h8v8h-8z M280,48h8v8h-8z M288,48h8v8h-8z M296,48h8v8h-8z M304,48h8v8h-8z M312,48h8v8h-8z M320,48h8v8h-8z M328,48h8v8h-8z M336,48h8v8h-8z M344,48h8v8h-8z M352,48h8v8h-8z M360,48h8v8h-8z M368,48h8v8h-8z M376,48h8v8h-8z M384,48h8v8h-8z M392,48h8v8h-8z M400,48h8v8h-8z M408,48h8v8h-8z M416,48h8v8h-8z M424,48h8v8h-8z M432,48h8v8h-8z M440,48h8v8h-8z M448,48h8v8h-8z M456,48h8v8h-8z M464,48h8v8h-8z M472,48h8v8h-8z M480,48h8v8h-8z M488,48h8v8h-8z M496,48h8v8h-8z M504,48h8v8h-8z M0,56h8v8h-8z M8,56h8v8h-8z M16,56h8v8h-8z M24,56h8v8h-8z M32,56h8v8h-8z M40,56h8v8h-8z M48,56h8v8h-8z M56,56h8v8h-8z M64,56h8v8h-8z M72,56h8v8h-8z M80,56h8v8h-8z M88,56h8v8h-8z M96,56h8v8h-8z M104,56h8v8h-8z M112,56h8v8h-8z M120,56h8v8h-8z M128,56h8v8h-8z M136,56h8v8h-8z M144,56h8v8h-8z M152,56h8v8h-8z M168,56h8v8h-8z M176,56h8v8h-8z M184,56h8v8h-8z M192,56h8v8h-8z M200,56h8v8h-8z M208,56h8v8h-8z M216,56h8v8h-8z M224,56h8v8h-8z M232,56h8v8h-8z M240,56h8v8h-8z M248,56h8v8h-8z M256,56h8v8h-8z M264,56h8v8h-8z M272,56h8v8h-8z M280,56h8v8h-8z M288,56h8v8h-8z M296,56h8v8h-8z M304,56h8v8h-8z M312,56h8v8h-8z M320,56h8v8h-8z M328,56h8v8h-8z M344,56h8v8h-8z M352,56h8v8h-8z M360,56h8v8h-8z M368,56h8v8h-8z M376,56h8v8h-8z M384,56h8v8h-8z M392,56h8v8h-8z M400,56h8v8h-8z M408,56h8v8h-8z M416,56h8v8h-8z M424,56h8v8h-8z M432,56h8v8h-8z M440,56h8v8h-8z M448,56h8v8h-8z M456,56h8v8h-8z M464,56h8v8h-8z M472,56h8v8h-8z M480,56h8v8h-8z M488,56h8v8h-8z M496,56h8v8h-8z M504,56h8v8h-8z M0,64h8v8h-8z M8,64h8v8h-8z M16,64h8v8h-8z M24,64h8v8h-8z M32,64h8v8h-8z M40,64h8v8h-8z M48,64h8v8h-8z M56,64h8v8h-8z M64,64h8v8h-8z M72,64h8v8h-8z M80,64h8v8h-8z M88,64h8v8h-8z M96,64h8v8h-8z M104,64h8v8h-8z M112,64h8v8h-8z M120,64h8v8h-8z M128,64h8v8h-8z M136,64h8v8h-8z M144,64h8v8h-8z M152,64h8v8h-8z M160,64h8v8h-8z M168,64h8v8h-8z M176,64h8v8h-8z M248,64h8v8h-8z M256,64h8v8h-8z M264,64h8v8h-8z M272,64h8v8h-8z M280,64h8v8h-8z M312,64h8v8h-8z M320,64h8v8h-8z M328,64h8v8h-8z M336,64h8v8h-8z M344,64h8v8h-8z M352,64h8v8h-8z M360,64h8v8h-8z M368,64h8v8h-8z M376,64h8v8h-8z M384,64h8v8h-8z M392,64h8v8h-8z M400,64h8v8h-8z M408,64h8v8h-8z M416,64h8v8h-8z M424,64h8v8h-8z M432,64h8v8h-8z M440,64h8v8h-8z M448,64h8v8h-8z M456,64h8v8h-8z M464,64h8v8h-8z M472,64h8v8h-8z M480,64h8v8h-8z M488,64h8v8h-8z M496,64h8v8h-8z M504,64h8v8h-8z M0,72h8v8h-8z M8,72h8v8h-8z M16,72h8v8h-8z M24,72h8v8h-8z M32,72h8v8h-8z M40,72h8v8h-8z M48,72h8v8h-8z M56,72h8v8h-8z M64,72h8v8h-8z M72,72h8v8h-8z M80,72h8v8h-8z M88,72h8v8h-8z M96,72h8v8h-8z M104,72h8v8h-8z M112,72h8v8h-8z M120,72h8v8h-8z M128,72h8v8h-8z M136,72h8v8h-8z M144,72h8v8h-8z M152,72h8v8h-8z M160,72h8v8h-8z M168,72h8v8h-8z M328,72h8v8h-8z M336,72h8v8h-8z M344,72h8v8h-8z M352,72h8v8h-8z M360,72h8v8h-8z M368,72h8v8h-8z M376,72h8v8h-8z M384,72h8v8h-8z M392,72h8v8h-8z M400,72h8v8h-8z M408,72h8v8h-8z M416,72h8v8h-8z M424,72h8v8h-8z M432,72h8v8h-8z M440,72h8v8h-8z M448,72h8v8h-8z M456,72h8v8h-8z M464,72h8v8h-8z M480,72h8v8h-8z M488,72h8v8h-8z M496,72h8v8h-8z M504,72h8v8h-8z M0,80h8v8h-8z M8,80h8v8h-8z M16,80h8v8h-8z M24,80h8v8h-8z M32,80h8v8h-8z M40,80h8v8h-8z M48,80h8v8h-8z M56,80h8v8h-8z M64,80h8v8h-8z M72,80h8v8h-8z M80,80h8v8h-8z M88,80h8v8h-8z M96,80h8v8h-8z M104,80h8v8h-8z M112,80h8v8h-8z M120,80h8v8h-8z M128,80h8v8h-8z M136,80h8v8h-8z M144,80h8v8h-8z M152,80h8v8h-8z M160,80h8v8h-8z M336,80h8v8h-8z M344,80h8v8h-8z M352,80h8v8h-8z M360,80h8v8h-8z M368,80h8v8h-8z M376,80h8v8h-8z M384,80h8v8h-8z M392,80h8v8h-8z M400,80h8v8h-8z M408,80h8v8h-8z M416,80h8v8h-8z M424,80h8v8h-8z M432,80h8v8h-8z M440,80h8v8h-8z M448,80h8v8h-8z M456,80h8v8h-8z M464,80h8v8h-8z M472,80h8v8h-8z M480,80h8v8h-8z M488,80h8v8h-8z M496,80h8v8h-8z M504,80h8v8h-8z M0,88h8v8h-8z M8,88h8v8h-8z M16,88h8v8h-8z M24,88h8v8h-8z M32,88h8v8h-8z M40,88h8v8h-8z M48,88h8v8h-8z M56,88h8v8h-8z M64,88h8v8h-8z M72,88h8v8h-8z M80,88h8v8h-8z M88,88h8v8h-8z M96,88h8v8h-8z M104,88h8v8h-8z M112,88h8v8h-8z M120,88h8v8h-8z M128,88h8v8h-8z M136,88h8v8h-8z M144,88h8v8h-8z M152,88h8v8h-8z M160,88h8v8h-8z M336,88h8v8h-8z M344,88h8v8h-8z M352,88h8v8h-8z M368,88h8v8h-8z M376,88h8v8h-8z M384,88h8v8h-8z M392,88h8v8h-8z M400,88h8v8h-8z M408,88h8v8h-8z M416,88h8v8h-8z M424,88h8v8h-8z M432,88h8v8h-8z M440,88h8v8h-8z M448,88h8v8h-8z M456,88h8v8h-8z M464,88h8v8h-8z M472,88h8v8h-8z M480,88h8v8h-8z M488,88h8v8h-8z M496,88h8v8h-8z M504,88h8v8h-8z M0,96h8v8h-8z M8,96h8v8h-8z M16,96h8v8h-8z M24,96h8v8h-8z M32,96h8v8h-8z M40,96h8v8h-8z M48,96h8v8h-8z M56,96h8v8h-8z M64,96h8v8h-8z M72,96h8v8h-8z M80,96h8v8h-8z M88,96h8v8h-8z M96,96h8v8h-8z M104,96h8v8h-8z M112,96h8v8h-8z M120,96h8v8h-8z M128,96h8v8h-8z M136,96h8v8h-8z M144,96h8v8h-8z M152,96h8v8h-8z M160,96h8v8h-8z M336,96h8v8h-8z M344,96h8v8h-8z M352,96h8v8h-8z M368,96h8v8h-8z M376,96h8v8h-8z M384,96h8v8h-8z M392,96h8v8h-8z M400,96h8v8h-8z M408,96h8v8h-8z M416,96h8v8h-8z M424,96h8v8h-8z M432,96h8v8h-8z M440,96h8v8h-8z M448,96h8v8h-8z M456,96h8v8h-8z M464,96h8v8h-8z M472,96h8v8h-8z M480,96h8v8h-8z M488,96h8v8h-8z M496,96h8v8h-8z M504,96h8v8h-8z M0,104h8v8h-8z M8,104h8v8h-8z M16,104h8v8h-8z M24,104h8v8h-8z M32,104h8v8h-8z M40,104h8v8h-8z M48,104h8v8h-8z M56,104h8v8h-8z M64,104h8v8h-8z M72,104h8v8h-8z M80,104h8v8h-8z M88,104h8v8h-8z M96,104h8v8h-8z M104,104h8v8h-8z M112,104h8v8h-8z M120,104h8v8h-8z M128,104h8v8h-8z M136,104h8v8h-8z M144,104h8v8h-8z M152,104h8v8h-8z M336,104h8v8h-8z M344,104h8v8h-8z M352,104h8v8h-8z M368,104h8v8h-8z M376,104h8v8h-8z M384,104h8v8h-8z M392,104h8v8h-8z M400,104h8v8h-8z M408,104h8v8h-8z M416,104h8v8h-8z M424,104h8v8h-8z M432,104h8v8h-8z M440,104h8v8h-8z M448,104h8v8h-8z M456,104h8v8h-8z M464,104h8v8h-8z M472,104h8v8h-8z M480,104h8v8h-8z M488,104h8v8h-8z M496,104h8v8h-8z M504,104h8v8h-8z M0,112h8v8h-8z M8,112h8v8h-8z M16,112h8v8h-8z M24,112h8v8h-8z M32,112h8v8h-8z M40,112h8v8h-8z M48,112h8v8h-8z M56,112h8v8h-8z M64,112h8v8h-8z M72,112h8v8h-8z M80,112h8v8h-8z M88,112h8v8h-8z M96,112h8v8h-8z M104,112h8v8h-8z M112,112h8v8h-8z M120,112h8v8h-8z M128,112h8v8h-8z M136,112h8v8h-8z M152,112h8v8h-8z M344,112h8v8h-8z M352,112h8v8h-8z M368,112h8v8h-8z M376,112h8v8h-8z M384,112h8v8h-8z M392,112h8v8h-8z M400,112h8v8h-8z M408,112h8v8h-8z M416,112h8v8h-8z M424,112h8v8h-8z M432,112h8v8h-8z M440,112h8v8h-8z M448,112h8v8h-8z M456,112h8v8h-8z M464,112h8v8h-8z M472,112h8v8h-8z M480,112h8v8h-8z M488,112h8v8h-8z M496,112h8v8h-8z M504,112h8v8h-8z M0,120h8v8h-8z M8,120h8v8h-8z M16,120h8v8h-8z M24,120h8v8h-8z M32,120h8v8h-8z M40,120h8v8h-8z M48,120h8v8h-8z M56,120h8v8h-8z M64,120h8v8h-8z M72,120h8v8h-8z M80,120h8v8h-8z M88,120h8v8h-8z M96,120h8v8h-8z M104,120h8v8h-8z M112,120h8v8h-8z M120,120h8v8h-8z M128,120h8v8h-8z M136,120h8v8h-8z M144,120h8v8h-8z M152,120h8v8h-8z M344,120h8v8h-8z M352,120h8v8h-8z M368,120h8v8h-8z M376,120h8v8h-8z M384,120h8v8h-8z M392,120h8v8h-8z M400,120h8v8h-8z M408,120h8v8h-8z M416,120h8v8h-8z M424,120h8v8h-8z M432,120h8v8h-8z M440,120h8v8h-8z M448,120h8v8h-8z M456,120h8v8h-8z M464,120h8v8h-8z M472,120h8v8h-8z M480,120h8v8h-8z M488,120h8v8h-8z M496,120h8v8h-8z M504,120h8v8h-8z M0,128h8v8h-8z M8,128h8v8h-8z M16,128h8v8h-8z M24,128h8v8h-8z M32,128h8v8h-8z M40,128h8v8h-8z M48,128h8v8h-8z M56,128h8v8h-8z M64,128h8v8h-8z M72,128h8v8h-8z M80,128h8v8h-8z M88,128h8v8h-8z M96,128h8v8h-8z M104,128h8v8h-8z M112,128h8v8h-8z M120,128h8v8h-8z M128,128h8v8h-8z M136,128h8v8h-8z M144,128h8v8h-8z M152,128h8v8h-8z M344,128h8v8h-8z M352,128h8v8h-8z M368,128h8v8h-8z M376,128h8v8h-8z M384,128h8v8h-8z M392,128h8v8h-8z M400,128h8v8h-8z M408,128h8v8h-8z M416,128h8v8h-8z M424,128h8v8h-8z M432,128h8v8h-8z M440,128h8v8h-8z M448,128h8v8h-8z M456,128h8v8h-8z M464,128h8v8h-8z M472,128h8v8h-8z M480,128h8v8h-8z M488,128h8v8h-8z M496,128h8v8h-8z M504,128h8v8h-8z M0,136h8v8h-8z M8,136h8v8h-8z M16,136h8v8h-8z M24,136h8v8h-8z M32,136h8v8h-8z M40,136h8v8h-8z M48,136h8v8h-8z M56,136h8v8h-8z M64,136h8v8h-8z M72,136h8v8h-8z M80,136h8v8h-8z M88,136h8v8h-8z M96,136h8v8h-8z M104,136h8v8h-8z M112,136h8v8h-8z M120,136h8v8h-8z M128,136h8v8h-8z M136,136h8v8h-8z M144,136h8v8h-8z M152,136h8v8h-8z M344,136h8v8h-8z M352,136h8v8h-8z M368,136h8v8h-8z M376,136h8v8h-8z M384,136h8v8h-8z M392,136h8v8h-8z M400,136h8v8h-8z M408,136h8v8h-8z M416,136h8v8h-8z M424,136h8v8h-8z M432,136h8v8h-8z M440,136h8v8h-8z M448,136h8v8h-8z M456,136h8v8h-8z M464,136h8v8h-8z M472,136h8v8h-8z M480,136h8v8h-8z M488,136h8v8h-8z M496,136h8v8h-8z M504,136h8v8h-8z M0,144h8v8h-8z M8,144h8v8h-8z M16,144h8v8h-8z M24,144h8v8h-8z M32,144h8v8h-8z M40,144h8v8h-8z M48,144h8v8h-8z M56,144h8v8h-8z M64,144h8v8h-8z M72,144h8v8h-8z M80,144h8v8h-8z M88,144h8v8h-8z M96,144h8v8h-8z M104,144h8v8h-8z M112,144h8v8h-8z M120,144h8v8h-8z M128,144h8v8h-8z M136,144h8v8h-8z M144,144h8v8h-8z M152,144h8v8h-8z M344,144h8v8h-8z M352,144h8v8h-8z M368,144h8v8h-8z M376,144h8v8h-8z M384,144h8v8h-8z M392,144h8v8h-8z M400,144h8v8h-8z M408,144h8v8h-8z M416,144h8v8h-8z M424,144h8v8h-8z M432,144h8v8h-8z M440,144h8v8h-8z M448,144h8v8h-8z M456,144h8v8h-8z M464,144h8v8h-8z M472,144h8v8h-8z M480,144h8v8h-8z M488,144h8v8h-8z M496,144h8v8h-8z M504,144h8v8h-8z M0,152h8v8h-8z M8,152h8v8h-8z M16,152h8v8h-8z M24,152h8v8h-8z M32,152h8v8h-8z M40,152h8v8h-8z M48,152h8v8h-8z M56,152h8v8h-8z M64,152h8v8h-8z M72,152h8v8h-8z M80,152h8v8h-8z M88,152h8v8h-8z M96,152h8v8h-8z M104,152h8v8h-8z M112,152h8v8h-8z M120,152h8v8h-8z M128,152h8v8h-8z M136,152h8v8h-8z M144,152h8v8h-8z M152,152h8v8h-8z M344,152h8v8h-8z M352,152h8v8h-8z M368,152h8v8h-8z M376,152h8v8h-8z M384,152h8v8h-8z M392,152h8v8h-8z M400,152h8v8h-8z M408,152h8v8h-8z M416,152h8v8h-8z M424,152h8v8h-8z M432,152h8v8h-8z M440,152h8v8h-8z M448,152h8v8h-8z M456,152h8v8h-8z M464,152h8v8h-8z M472,152h8v8h-8z M480,152h8v8h-8z M488,152h8v8h-8z M496,152h8v8h-8z M504,152h8v8h-8z M0,160h8v8h-8z M8,160h8v8h-8z M16,160h8v8h-8z M24,160h8v8h-8z M32,160h8v8h-8z M40,160h8v8h-8z M48,160h8v8h-8z M56,160h8v8h-8z M64,160h8v8h-8z M72,160h8v8h-8z M80,160h8v8h-8z M88,160h8v8h-8z M96,160h8v8h-8z M104,160h8v8h-8z M112,160h8v8h-8z M120,160h8v8h-8z M128,160h8v8h-8z M136,160h8v8h-8z M144,160h8v8h-8z M152,160h8v8h-8z M184,160h8v8h-8z M192,160h8v8h-8z M200,160h8v8h-8z M208,160h8v8h-8z M216,160h8v8h-8z M224,160h8v8h-8z M232,160h8v8h-8z M264,160h8v8h-8z M272,160h8v8h-8z M280,160h8v8h-8z M288,160h8v8h-8z M296,160h8v8h-8z M304,160h8v8h-8z M312,160h8v8h-8z M344,160h8v8h-8z M352,160h8v8h-8z M368,160h8v8h-8z M376,160h8v8h-8z M384,160h8v8h-8z M392,160h8v8h-8z M400,160h8v8h-8z M408,160h8v8h-8z M416,160h8v8h-8z M424,160h8v8h-8z M432,160h8v8h-8z M440,160h8v8h-8z M448,160h8v8h-8z M456,160h8v8h-8z M464,160h8v8h-8z M472,160h8v8h-8z M480,160h8v8h-8z M488,160h8v8h-8z M496,160h8v8h-8z M504,160h8v8h-8z M0,168h8v8h-8z M8,168h8v8h-8z M16,168h8v8h-8z M24,168h8v8h-8z M32,168h8v8h-8z M40,168h8v8h-8z M48,168h8v8h-8z M56,168h8v8h-8z M64,168h8v8h-8z M72,168h8v8h-8z M80,168h8v8h-8z M88,168h8v8h-8z M96,168h8v8h-8z M104,168h8v8h-8z M112,168h8v8h-8z M120,168h8v8h-8z M128,168h8v8h-8z M136,168h8v8h-8z M144,168h8v8h-8z M152,168h8v8h-8z M208,168h8v8h-8z M216,168h8v8h-8z M232,168h8v8h-8z M264,168h8v8h-8z M272,168h8v8h-8z M280,168h8v8h-8z M288,168h8v8h-8z M296,168h8v8h-8z M304,168h8v8h-8z M312,168h8v8h-8z M320,168h8v8h-8z M328,168h8v8h-8z M344,168h8v8h-8z M352,168h8v8h-8z M368,168h8v8h-8z M376,168h8v8h-8z M384,168h8v8h-8z M392,168h8v8h-8z M400,168h8v8h-8z M408,168h8v8h-8z M416,168h8v8h-8z M424,168h8v8h-8z M432,168h8v8h-8z M440,168h8v8h-8z M448,168h8v8h-8z M456,168h8v8h-8z M464,168h8v8h-8z M472,168h8v8h-8z M480,168h8v8h-8z M488,168h8v8h-8z M496,168h8v8h-8z M504,168h8v8h-8z M0,176h8v8h-8z M8,176h8v8h-8z M16,176h8v8h-8z M24,176h8v8h-8z M32,176h8v8h-8z M40,176h8v8h-8z M48,176h8v8h-8z M56,176h8v8h-8z M64,176h8v8h-8z M72,176h8v8h-8z M80,176h8v8h-8z M88,176h8v8h-8z M96,176h8v8h-8z M104,176h8v8h-8z M112,176h8v8h-8z M120,176h8v8h-8z M152,176h8v8h-8z M184,176h8v8h-8z M192,176h8v8h-8z M200,176h8v8h-8z M208,176h8v8h-8z M216,176h8v8h-8z M232,176h8v8h-8z M256,176h8v8h-8z M264,176h8v8h-8z M272,176h8v8h-8z M280,176h8v8h-8z M288,176h8v8h-8z M296,176h8v8h-8z M304,176h8v8h-8z M312,176h8v8h-8z M320,176h8v8h-8z M328,176h8v8h-8z M344,176h8v8h-8z M376,176h8v8h-8z M384,176h8v8h-8z M392,176h8v8h-8z M400,176h8v8h-8z M408,176h8v8h-8z M416,176h8v8h-8z M424,176h8v8h-8z M432,176h8v8h-8z M440,176h8v8h-8z M448,176h8v8h-8z M456,176h8v8h-8z M464,176h8v8h-8z M472,176h8v8h-8z M480,176h8v8h-8z M488,176h8v8h-8z M496,176h8v8h-8z M504,176h8v8h-8z M0,184h8v8h-8z M8,184h8v8h-8z M16,184h8v8h-8z M24,184h8v8h-8z M32,184h8v8h-8z M40,184h8v8h-8z M48,184h8v8h-8z M56,184h8v8h-8z M64,184h8v8h-8z M72,184h8v8h-8z M80,184h8v8h-8z M88,184h8v8h-8z M96,184h8v8h-8z M104,184h8v8h-8z M112,184h8v8h-8z M120,184h8v8h-8z M152,184h8v8h-8z M184,184h8v8h-8z M192,184h8v8h-8z M200,184h8v8h-8z M208,184h8v8h-8z M216,184h8v8h-8z M264,184h8v8h-8z M272,184h8v8h-8z M280,184h8v8h-8z M288,184h8v8h-8z M296,184h8v8h-8z M304,184h8v8h-8z M312,184h8v8h-8z M320,184h8v8h-8z M328,184h8v8h-8z M344,184h8v8h-8z M376,184h8v8h-8z M384,184h8v8h-8z M392,184h8v8h-8z M400,184h8v8h-8z M408,184h8v8h-8z M416,184h8v8h-8z M424,184h8v8h-8z M432,184h8v8h-8z M440,184h8v8h-8z M448,184h8v8h-8z M456,184h8v8h-8z M464,184h8v8h-8z M472,184h8v8h-8z M480,184h8v8h-8z M488,184h8v8h-8z M496,184h8v8h-8z M504,184h8v8h-8z M0,192h8v8h-8z M8,192h8v8h-8z M16,192h8v8h-8z M24,192h8v8h-8z M32,192h8v8h-8z M40,192h8v8h-8z M48,192h8v8h-8z M56,192h8v8h-8z M64,192h8v8h-8z M72,192h8v8h-8z M80,192h8v8h-8z M88,192h8v8h-8z M96,192h8v8h-8z M104,192h8v8h-8z M112,192h8v8h-8z M120,192h8v8h-8z M152,192h8v8h-8z M264,192h8v8h-8z M288,192h8v8h-8z M296,192h8v8h-8z M312,192h8v8h-8z M328,192h8v8h-8z M344,192h8v8h-8z M352,192h8v8h-8z M360,192h8v8h-8z M368,192h8v8h-8z M376,192h8v8h-8z M384,192h8v8h-8z M392,192h8v8h-8z M400,192h8v8h-8z M408,192h8v8h-8z M416,192h8v8h-8z M424,192h8v8h-8z M432,192h8v8h-8z M440,192h8v8h-8z M448,192h8v8h-8z M456,192h8v8h-8z M464,192h8v8h-8z M472,192h8v8h-8z M480,192h8v8h-8z M488,192h8v8h-8z M496,192h8v8h-8z M504,192h8v8h-8z M0,200h8v8h-8z M8,200h8v8h-8z M16,200h8v8h-8z M24,200h8v8h-8z M32,200h8v8h-8z M40,200h8v8h-8z M48,200h8v8h-8z M56,200h8v8h-8z M64,200h8v8h-8z M72,200h8v8h-8z M80,200h8v8h-8z M88,200h8v8h-8z M96,200h8v8h-8z M104,200h8v8h-8z M112,200h8v8h-8z M120,200h8v8h-8z M152,200h8v8h-8z M344,200h8v8h-8z M360,200h8v8h-8z M368,200h8v8h-8z M376,200h8v8h-8z M384,200h8v8h-8z M392,200h8v8h-8z M400,200h8v8h-8z M408,200h8v8h-8z M416,200h8v8h-8z M424,200h8v8h-8z M432,200h8v8h-8z M440,200h8v8h-8z M448,200h8v8h-8z M456,200h8v8h-8z M464,200h8v8h-8z M472,200h8v8h-8z M480,200h8v8h-8z M488,200h8v8h-8z M496,200h8v8h-8z M504,200h8v8h-8z M0,208h8v8h-8z M8,208h8v8h-8z M16,208h8v8h-8z M24,208h8v8h-8z M32,208h8v8h-8z M40,208h8v8h-8z M48,208h8v8h-8z M56,208h8v8h-8z M64,208h8v8h-8z M72,208h8v8h-8z M80,208h8v8h-8z M88,208h8v8h-8z M96,208h8v8h-8z M104,208h8v8h-8z M112,208h8v8h-8z M120,208h8v8h-8z M128,208h8v8h-8z M152,208h8v8h-8z M344,208h8v8h-8z M360,208h8v8h-8z M368,208h8v8h-8z M376,208h8v8h-8z M384,208h8v8h-8z M392,208h8v8h-8z M400,208h8v8h-8z M408,208h8v8h-8z M416,208h8v8h-8z M424,208h8v8h-8z M432,208h8v8h-8z M440,208h8v8h-8z M448,208h8v8h-8z M456,208h8v8h-8z M464,208h8v8h-8z M472,208h8v8h-8z M480,208h8v8h-8z M488,208h8v8h-8z M496,208h8v8h-8z M504,208h8v8h-8z M0,216h8v8h-8z M8,216h8v8h-8z M16,216h8v8h-8z M24,216h8v8h-8z M32,216h8v8h-8z M40,216h8v8h-8z M48,216h8v8h-8z M56,216h8v8h-8z M64,216h8v8h-8z M72,216h8v8h-8z M80,216h8v8h-8z M88,216h8v8h-8z M96,216h8v8h-8z M104,216h8v8h-8z M112,216h8v8h-8z M120,216h8v8h-8z M128,216h8v8h-8z M152,216h8v8h-8z M264,216h8v8h-8z M344,216h8v8h-8z M368,216h8v8h-8z M376,216h8v8h-8z M384,216h8v8h-8z M392,216h8v8h-8z M400,216h8v8h-8z M408,216h8v8h-8z M416,216h8v8h-8z M424,216h8v8h-8z M432,216h8v8h-8z M440,216h8v8h-8z M448,216h8v8h-8z M456,216h8v8h-8z M464,216h8v8h-8z M472,216h8v8h-8z M480,216h8v8h-8z M488,216h8v8h-8z M496,216h8v8h-8z M504,216h8v8h-8z M0,224h8v8h-8z M8,224h8v8h-8z M16,224h8v8h-8z M24,224h8v8h-8z M32,224h8v8h-8z M40,224h8v8h-8z M48,224h8v8h-8z M56,224h8v8h-8z M64,224h8v8h-8z M72,224h8v8h-8z M80,224h8v8h-8z M88,224h8v8h-8z M96,224h8v8h-8z M104,224h8v8h-8z M112,224h8v8h-8z M120,224h8v8h-8z M128,224h8v8h-8z M152,224h8v8h-8z M280,224h8v8h-8z M336,224h8v8h-8z M344,224h8v8h-8z M368,224h8v8h-8z M376,224h8v8h-8z M384,224h8v8h-8z M392,224h8v8h-8z M400,224h8v8h-8z M408,224h8v8h-8z M416,224h8v8h-8z M424,224h8v8h-8z M432,224h8v8h-8z M440,224h8v8h-8z M448,224h8v8h-8z M456,224h8v8h-8z M464,224h8v8h-8z M472,224h8v8h-8z M480,224h8v8h-8z M488,224h8v8h-8z M496,224h8v8h-8z M504,224h8v8h-8z M0,232h8v8h-8z M8,232h8v8h-8z M16,232h8v8h-8z M24,232h8v8h-8z M32,232h8v8h-8z M40,232h8v8h-8z M48,232h8v8h-8z M56,232h8v8h-8z M64,232h8v8h-8z M72,232h8v8h-8z M80,232h8v8h-8z M88,232h8v8h-8z M96,232h8v8h-8z M104,232h8v8h-8z M112,232h8v8h-8z M120,232h8v8h-8z M128,232h8v8h-8z M152,232h8v8h-8z M272,232h8v8h-8z M280,232h8v8h-8z M336,232h8v8h-8z M344,232h8v8h-8z M368,232h8v8h-8z M376,232h8v8h-8z M384,232h8v8h-8z M392,232h8v8h-8z M400,232h8v8h-8z M408,232h8v8h-8z M416,232h8v8h-8z M424,232h8v8h-8z M432,232h8v8h-8z M440,232h8v8h-8z M448,232h8v8h-8z M456,232h8v8h-8z M464,232h8v8h-8z M472,232h8v8h-8z M480,232h8v8h-8z M488,232h8v8h-8z M496,232h8v8h-8z M504,232h8v8h-8z M0,240h8v8h-8z M8,240h8v8h-8z M16,240h8v8h-8z M24,240h8v8h-8z M32,240h8v8h-8z M40,240h8v8h-8z M48,240h8v8h-8z M56,240h8v8h-8z M64,240h8v8h-8z M72,240h8v8h-8z M80,240h8v8h-8z M88,240h8v8h-8z M96,240h8v8h-8z M104,240h8v8h-8z M112,240h8v8h-8z M120,240h8v8h-8z M128,240h8v8h-8z M152,240h8v8h-8z M224,240h8v8h-8z M232,240h8v8h-8z M240,240h8v8h-8z M248,240h8v8h-8z M256,240h8v8h-8z M264,240h8v8h-8z M272,240h8v8h-8z M280,240h8v8h-8z M336,240h8v8h-8z M344,240h8v8h-8z M368,240h8v8h-8z M376,240h8v8h-8z M384,240h8v8h-8z M392,240h8v8h-8z M400,240h8v8h-8z M408,240h8v8h-8z M416,240h8v8h-8z M424,240h8v8h-8z M432,240h8v8h-8z M440,240h8v8h-8z M448,240h8v8h-8z M456,240h8v8h-8z M464,240h8v8h-8z M472,240h8v8h-8z M480,240h8v8h-8z M488,240h8v8h-8z M496,240h8v8h-8z M504,240h8v8h-8z M0,248h8v8h-8z M8,248h8v8h-8z M16,248h8v8h-8z M24,248h8v8h-8z M32,248h8v8h-8z M40,248h8v8h-8z M48,248h8v8h-8z M56,248h8v8h-8z M64,248h8v8h-8z M72,248h8v8h-8z M80,248h8v8h-8z M88,248h8v8h-8z M96,248h8v8h-8z M104,248h8v8h-8z M112,248h8v8h-8z M120,248h8v8h-8z M128,248h8v8h-8z M136,248h8v8h-8z M152,248h8v8h-8z M216,248h8v8h-8z M224,248h8v8h-8z M232,248h8v8h-8z M240,248h8v8h-8z M248,248h8v8h-8z M256,248h8v8h-8z M264,248h8v8h-8z M272,248h8v8h-8z M280,248h8v8h-8z M288,248h8v8h-8z M336,248h8v8h-8z M352,248h8v8h-8z M360,248h8v8h-8z M368,248h8v8h-8z M376,248h8v8h-8z M384,248h8v8h-8z M392,248h8v8h-8z M400,248h8v8h-8z M408,248h8v8h-8z M416,248h8v8h-8z M424,248h8v8h-8z M432,248h8v8h-8z M440,248h8v8h-8z M448,248h8v8h-8z M456,248h8v8h-8z M464,248h8v8h-8z M472,248h8v8h-8z M480,248h8v8h-8z M488,248h8v8h-8z M496,248h8v8h-8z M504,248h8v8h-8z M0,256h8v8h-8z M8,256h8v8h-8z M16,256h8v8h-8z M24,256h8v8h-8z M32,256h8v8h-8z M40,256h8v8h-8z M48,256h8v8h-8z M56,256h8v8h-8z M64,256h8v8h-8z M72,256h8v8h-8z M80,256h8v8h-8z M88,256h8v8h-8z M96,256h8v8h-8z M104,256h8v8h-8z M112,256h8v8h-8z M120,256h8v8h-8z M128,256h8v8h-8z M136,256h8v8h-8z M144,256h8v8h-8z M152,256h8v8h-8z M200,256h8v8h-8z M208,256h8v8h-8z M216,256h8v8h-8z M224,256h8v8h-8z M232,256h8v8h-8z M240,256h8v8h-8z M248,256h8v8h-8z M256,256h8v8h-8z M264,256h8v8h-8z M272,256h8v8h-8z M280,256h8v8h-8z M288,256h8v8h-8z M296,256h8v8h-8z M320,256h8v8h-8z M328,256h8v8h-8z M336,256h8v8h-8z M352,256h8v8h-8z M360,256h8v8h-8z M368,256h8v8h-8z M376,256h8v8h-8z M384,256h8v8h-8z M392,256h8v8h-8z M400,256h8v8h-8z M408,256h8v8h-8z M416,256h8v8h-8z M424,256h8v8h-8z M432,256h8v8h-8z M440,256h8v8h-8z M448,256h8v8h-8z M456,256h8v8h-8z M464,256h8v8h-8z M472,256h8v8h-8z M480,256h8v8h-8z M488,256h8v8h-8z M496,256h8v8h-8z M504,256h8v8h-8z M0,264h8v8h-8z M8,264h8v8h-8z M16,264h8v8h-8z M24,264h8v8h-8z M32,264h8v8h-8z M40,264h8v8h-8z M48,264h8v8h-8z M56,264h8v8h-8z M64,264h8v8h-8z M72,264h8v8h-8z M80,264h8v8h-8z M88,264h8v8h-8z M96,264h8v8h-8z M104,264h8v8h-8z M112,264h8v8h-8z M120,264h8v8h-8z M128,264h8v8h-8z M136,264h8v8h-8z M144,264h8v8h-8z M152,264h8v8h-8z M192,264h8v8h-8z M200,264h8v8h-8z M208,264h8v8h-8z M216,264h8v8h-8z M224,264h8v8h-8z M232,264h8v8h-8z M240,264h8v8h-8z M248,264h8v8h-8z M256,264h8v8h-8z M264,264h8v8h-8z M272,264h8v8h-8z M280,264h8v8h-8z M288,264h8v8h-8z M296,264h8v8h-8z M304,264h8v8h-8z M320,264h8v8h-8z M328,264h8v8h-8z M336,264h8v8h-8z M344,264h8v8h-8z M352,264h8v8h-8z M360,264h8v8h-8z M368,264h8v8h-8z M376,264h8v8h-8z M384,264h8v8h-8z M392,264h8v8h-8z M400,264h8v8h-8z M408,264h8v8h-8z M416,264h8v8h-8z M424,264h8v8h-8z M432,264h8v8h-8z M440,264h8v8h-8z M448,264h8v8h-8z M456,264h8v8h-8z M464,264h8v8h-8z M472,264h8v8h-8z M480,264h8v8h-8z M488,264h8v8h-8z M496,264h8v8h-8z M504,264h8v8h-8z M0,272h8v8h-8z M8,272h8v8h-8z M16,272h8v8h-8z M24,272h8v8h-8z M32,272h8v8h-8z M40,272h8v8h-8z M48,272h8v8h-8z M56,272h8v8h-8z M64,272h8v8h-8z M72,272h8v8h-8z M80,272h8v8h-8z M88,272h8v8h-8z M96,272h8v8h-8z M104,272h8v8h-8z M112,272h8v8h-8z M120,272h8v8h-8z M128,272h8v8h-8z M136,272h8v8h-8z M144,272h8v8h-8z M152,272h8v8h-8z M184,272h8v8h-8z M192,272h8v8h-8z M200,272h8v8h-8z M208,272h8v8h-8z M216,272h8v8h-8z M224,272h8v8h-8z M232,272h8v8h-8z M240,272h8v8h-8z M248,272h8v8h-8z M256,272h8v8h-8z M264,272h8v8h-8z M272,272h8v8h-8z M280,272h8v8h-8z M288,272h8v8h-8z M296,272h8v8h-8z M304,272h8v8h-8z M320,272h8v8h-8z M328,272h8v8h-8z M336,272h8v8h-8z M344,272h8v8h-8z M352,272h8v8h-8z M360,272h8v8h-8z M368,272h8v8h-8z M376,272h8v8h-8z M384,272h8v8h-8z M392,272h8v8h-8z M400,272h8v8h-8z M408,272h8v8h-8z M416,272h8v8h-8z M424,272h8v8h-8z M432,272h8v8h-8z M440,272h8v8h-8z M448,272h8v8h-8z M456,272h8v8h-8z M464,272h8v8h-8z M472,272h8v8h-8z M480,272h8v8h-8z M488,272h8v8h-8z M496,272h8v8h-8z M504,272h8v8h-8z M0,280h8v8h-8z M8,280h8v8h-8z M16,280h8v8h-8z M24,280h8v8h-8z M32,280h8v8h-8z M40,280h8v8h-8z M48,280h8v8h-8z M56,280h8v8h-8z M64,280h8v8h-8z M72,280h8v8h-8z M80,280h8v8h-8z M88,280h8v8h-8z M96,280h8v8h-8z M104,280h8v8h-8z M112,280h8v8h-8z M120,280h8v8h-8z M128,280h8v8h-8z M136,280h8v8h-8z M144,280h8v8h-8z M152,280h8v8h-8z M184,280h8v8h-8z M192,280h8v8h-8z M200,280h8v8h-8z M208,280h8v8h-8z M216,280h8v8h-8z M264,280h8v8h-8z M272,280h8v8h-8z M280,280h8v8h-8z M288,280h8v8h-8z M296,280h8v8h-8z M304,280h8v8h-8z M312,280h8v8h-8z M320,280h8v8h-8z M328,280h8v8h-8z M344,280h8v8h-8z M352,280h8v8h-8z M360,280h8v8h-8z M368,280h8v8h-8z M376,280h8v8h-8z M384,280h8v8h-8z M392,280h8v8h-8z M400,280h8v8h-8z M408,280h8v8h-8z M416,280h8v8h-8z M424,280h8v8h-8z M432,280h8v8h-8z M440,280h8v8h-8z M448,280h8v8h-8z M456,280h8v8h-8z M464,280h8v8h-8z M472,280h8v8h-8z M480,280h8v8h-8z M488,280h8v8h-8z M496,280h8v8h-8z M504,280h8v8h-8z M0,288h8v8h-8z M8,288h8v8h-8z M16,288h8v8h-8z M24,288h8v8h-8z M32,288h8v8h-8z M40,288h8v8h-8z M48,288h8v8h-8z M56,288h8v8h-8z M64,288h8v8h-8z M72,288h8v8h-8z M80,288h8v8h-8z M88,288h8v8h-8z M96,288h8v8h-8z M104,288h8v8h-8z M112,288h8v8h-8z M120,288h8v8h-8z M128,288h8v8h-8z M136,288h8v8h-8z M144,288h8v8h-8z M152,288h8v8h-8z M184,288h8v8h-8z M192,288h8v8h-8z M200,288h8v8h-8z M240,288h8v8h-8z M248,288h8v8h-8z M256,288h8v8h-8z M264,288h8v8h-8z M296,288h8v8h-8z M304,288h8v8h-8z M312,288h8v8h-8z M320,288h8v8h-8z M328,288h8v8h-8z M336,288h8v8h-8z M344,288h8v8h-8z M352,288h8v8h-8z M360,288h8v8h-8z M368,288h8v8h-8z M376,288h8v8h-8z M384,288h8v8h-8z M392,288h8v8h-8z M400,288h8v8h-8z M408,288h8v8h-8z M416,288h8v8h-8z M424,288h8v8h-8z M432,288h8v8h-8z M440,288h8v8h-8z M448,288h8v8h-8z M456,288h8v8h-8z M464,288h8v8h-8z M472,288h8v8h-8z M480,288h8v8h-8z M488,288h8v8h-8z M496,288h8v8h-8z M504,288h8v8h-8z M0,296h8v8h-8z M8,296h8v8h-8z M16,296h8v8h-8z M24,296h8v8h-8z M32,296h8v8h-8z M40,296h8v8h-8z M48,296h8v8h-8z M56,296h8v8h-8z M64,296h8v8h-8z M72,296h8v8h-8z M80,296h8v8h-8z M88,296h8v8h-8z M96,296h8v8h-8z M104,296h8v8h-8z M112,296h8v8h-8z M120,296h8v8h-8z M128,296h8v8h-8z M136,296h8v8h-8z M144,296h8v8h-8z M152,296h8v8h-8z M160,296h8v8h-8z M184,296h8v8h-8z M192,296h8v8h-8z M232,296h8v8h-8z M240,296h8v8h-8z M248,296h8v8h-8z M256,296h8v8h-8z M264,296h8v8h-8z M272,296h8v8h-8z M280,296h8v8h-8z M296,296h8v8h-8z M304,296h8v8h-8z M312,296h8v8h-8z M320,296h8v8h-8z M328,296h8v8h-8z M336,296h8v8h-8z M344,296h8v8h-8z M352,296h8v8h-8z M360,296h8v8h-8z M368,296h8v8h-8z M376,296h8v8h-8z M384,296h8v8h-8z M392,296h8v8h-8z M400,296h8v8h-8z M408,296h8v8h-8z M416,296h8v8h-8z M424,296h8v8h-8z M432,296h8v8h-8z M440,296h8v8h-8z M448,296h8v8h-8z M456,296h8v8h-8z M464,296h8v8h-8z M472,296h8v8h-8z M480,296h8v8h-8z M488,296h8v8h-8z M496,296h8v8h-8z M504,296h8v8h-8z M0,304h8v8h-8z M8,304h8v8h-8z M16,304h8v8h-8z M24,304h8v8h-8z M32,304h8v8h-8z M40,304h8v8h-8z M48,304h8v8h-8z M56,304h8v8h-8z M64,304h8v8h-8z M72,304h8v8h-8z M80,304h8v8h-8z M88,304h8v8h-8z M96,304h8v8h-8z M104,304h8v8h-8z M112,304h8v8h-8z M120,304h8v8h-8z M128,304h8v8h-8z M136,304h8v8h-8z M144,304h8v8h-8z M152,304h8v8h-8z M160,304h8v8h-8z M168,304h8v8h-8z M184,304h8v8h-8z M192,304h8v8h-8z M240,304h8v8h-8z M248,304h8v8h-8z M256,304h8v8h-8z M288,304h8v8h-8z M296,304h8v8h-8z M304,304h8v8h-8z M312,304h8v8h-8z M320,304h8v8h-8z M328,304h8v8h-8z M336,304h8v8h-8z M344,304h8v8h-8z M352,304h8v8h-8z M360,304h8v8h-8z M368,304h8v8h-8z M376,304h8v8h-8z M384,304h8v8h-8z M392,304h8v8h-8z M400,304h8v8h-8z M408,304h8v8h-8z M416,304h8v8h-8z M424,304h8v8h-8z M432,304h8v8h-8z M440,304h8v8h-8z M448,304h8v8h-8z M456,304h8v8h-8z M464,304h8v8h-8z M472,304h8v8h-8z M480,304h8v8h-8z M488,304h8v8h-8z M496,304h8v8h-8z M504,304h8v8h-8z M0,312h8v8h-8z M8,312h8v8h-8z M16,312h8v8h-8z M24,312h8v8h-8z M32,312h8v8h-8z M40,312h8v8h-8z M48,312h8v8h-8z M56,312h8v8h-8z M64,312h8v8h-8z M72,312h8v8h-8z M80,312h8v8h-8z M88,312h8v8h-8z M96,312h8v8h-8z M104,312h8v8h-8z M112,312h8v8h-8z M120,312h8v8h-8z M128,312h8v8h-8z M136,312h8v8h-8z M144,312h8v8h-8z M152,312h8v8h-8z M160,312h8v8h-8z M168,312h8v8h-8z M176,312h8v8h-8z M184,312h8v8h-8z M192,312h8v8h-8z M248,312h8v8h-8z M256,312h8v8h-8z M288,312h8v8h-8z M296,312h8v8h-8z M304,312h8v8h-8z M312,312h8v8h-8z M336,312h8v8h-8z M344,312h8v8h-8z M352,312h8v8h-8z M360,312h8v8h-8z M368,312h8v8h-8z M376,312h8v8h-8z M384,312h8v8h-8z M392,312h8v8h-8z M400,312h8v8h-8z M408,312h8v8h-8z M416,312h8v8h-8z M424,312h8v8h-8z M432,312h8v8h-8z M440,312h8v8h-8z M448,312h8v8h-8z M456,312h8v8h-8z M464,312h8v8h-8z M472,312h8v8h-8z M480,312h8v8h-8z M488,312h8v8h-8z M496,312h8v8h-8z M504,312h8v8h-8z M0,320h8v8h-8z M8,320h8v8h-8z M16,320h8v8h-8z M24,320h8v8h-8z M32,320h8v8h-8z M40,320h8v8h-8z M48,320h8v8h-8z M56,320h8v8h-8z M64,320h8v8h-8z M72,320h8v8h-8z M80,320h8v8h-8z M88,320h8v8h-8z M96,320h8v8h-8z M104,320h8v8h-8z M112,320h8v8h-8z M120,320h8v8h-8z M128,320h8v8h-8z M136,320h8v8h-8z M144,320h8v8h-8z M152,320h8v8h-8z M160,320h8v8h-8z M176,320h8v8h-8z M184,320h8v8h-8z M192,320h8v8h-8z M248,320h8v8h-8z M264,320h8v8h-8z M296,320h8v8h-8z M304,320h8v8h-8z M312,320h8v8h-8z M336,320h8v8h-8z M344,320h8v8h-8z M352,320h8v8h-8z M360,320h8v8h-8z M368,320h8v8h-8z M376,320h8v8h-8z M384,320h8v8h-8z M392,320h8v8h-8z M400,320h8v8h-8z M408,320h8v8h-8z M416,320h8v8h-8z M424,320h8v8h-8z M432,320h8v8h-8z M440,320h8v8h-8z M448,320h8v8h-8z M456,320h8v8h-8z M464,320h8v8h-8z M472,320h8v8h-8z M480,320h8v8h-8z M488,320h8v8h-8z M496,320h8v8h-8z M504,320h8v8h-8z M0,328h8v8h-8z M8,328h8v8h-8z M16,328h8v8h-8z M24,328h8v8h-8z M32,328h8v8h-8z M40,328h8v8h-8z M48,328h8v8h-8z M56,328h8v8h-8z M64,328h8v8h-8z M72,328h8v8h-8z M80,328h8v8h-8z M88,328h8v8h-8z M96,328h8v8h-8z M104,328h8v8h-8z M112,328h8v8h-8z M120,328h8v8h-8z M128,328h8v8h-8z M136,328h8v8h-8z M144,328h8v8h-8z M152,328h8v8h-8z M160,328h8v8h-8z M184,328h8v8h-8z M192,328h8v8h-8z M200,328h8v8h-8z M248,328h8v8h-8z M264,328h8v8h-8z M272,328h8v8h-8z M288,328h8v8h-8z M296,328h8v8h-8z M304,328h8v8h-8z M336,328h8v8h-8z M344,328h8v8h-8z M352,328h8v8h-8z M360,328h8v8h-8z M368,328h8v8h-8z M376,328h8v8h-8z M384,328h8v8h-8z M392,328h8v8h-8z M400,328h8v8h-8z M408,328h8v8h-8z M416,328h8v8h-8z M424,328h8v8h-8z M432,328h8v8h-8z M440,328h8v8h-8z M448,328h8v8h-8z M456,328h8v8h-8z M464,328h8v8h-8z M472,328h8v8h-8z M480,328h8v8h-8z M488,328h8v8h-8z M496,328h8v8h-8z M504,328h8v8h-8z M0,336h8v8h-8z M8,336h8v8h-8z M16,336h8v8h-8z M24,336h8v8h-8z M32,336h8v8h-8z M40,336h8v8h-8z M48,336h8v8h-8z M56,336h8v8h-8z M64,336h8v8h-8z M72,336h8v8h-8z M80,336h8v8h-8z M88,336h8v8h-8z M96,336h8v8h-8z M104,336h8v8h-8z M112,336h8v8h-8z M120,336h8v8h-8z M128,336h8v8h-8z M136,336h8v8h-8z M144,336h8v8h-8z M152,336h8v8h-8z M200,336h8v8h-8z M232,336h8v8h-8z M240,336h8v8h-8z M248,336h8v8h-8z M256,336h8v8h-8z M272,336h8v8h-8z M288,336h8v8h-8z M296,336h8v8h-8z M336,336h8v8h-8z M344,336h8v8h-8z M352,336h8v8h-8z M360,336h8v8h-8z M368,336h8v8h-8z M376,336h8v8h-8z M384,336h8v8h-8z M392,336h8v8h-8z M400,336h8v8h-8z M408,336h8v8h-8z M416,336h8v8h-8z M424,336h8v8h-8z M432,336h8v8h-8z M440,336h8v8h-8z M448,336h8v8h-8z M456,336h8v8h-8z M464,336h8v8h-8z M472,336h8v8h-8z M480,336h8v8h-8z M488,336h8v8h-8z M496,336h8v8h-8z M504,336h8v8h-8z M0,344h8v8h-8z M8,344h8v8h-8z M16,344h8v8h-8z M24,344h8v8h-8z M32,344h8v8h-8z M40,344h8v8h-8z M48,344h8v8h-8z M56,344h8v8h-8z M64,344h8v8h-8z M72,344h8v8h-8z M80,344h8v8h-8z M88,344h8v8h-8z M96,344h8v8h-8z M104,344h8v8h-8z M112,344h8v8h-8z M120,344h8v8h-8z M128,344h8v8h-8z M136,344h8v8h-8z M160,344h8v8h-8z M216,344h8v8h-8z M224,344h8v8h-8z M232,344h8v8h-8z M240,344h8v8h-8z M248,344h8v8h-8z M256,344h8v8h-8z M264,344h8v8h-8z M272,344h8v8h-8z M280,344h8v8h-8z M288,344h8v8h-8z M336,344h8v8h-8z M344,344h8v8h-8z M352,344h8v8h-8z M360,344h8v8h-8z M368,344h8v8h-8z M376,344h8v8h-8z M384,344h8v8h-8z M392,344h8v8h-8z M400,344h8v8h-8z M408,344h8v8h-8z M416,344h8v8h-8z M424,344h8v8h-8z M432,344h8v8h-8z M440,344h8v8h-8z M448,344h8v8h-8z M456,344h8v8h-8z M464,344h8v8h-8z M472,344h8v8h-8z M480,344h8v8h-8z M488,344h8v8h-8z M496,344h8v8h-8z M504,344h8v8h-8z M0,352h8v8h-8z M8,352h8v8h-8z M16,352h8v8h-8z M24,352h8v8h-8z M32,352h8v8h-8z M40,352h8v8h-8z M48,352h8v8h-8z M56,352h8v8h-8z M64,352h8v8h-8z M72,352h8v8h-8z M80,352h8v8h-8z M88,352h8v8h-8z M96,352h8v8h-8z M104,352h8v8h-8z M112,352h8v8h-8z M120,352h8v8h-8z M128,352h8v8h-8z M136,352h8v8h-8z M160,352h8v8h-8z M240,352h8v8h-8z M248,352h8v8h-8z M256,352h8v8h-8z M264,352h8v8h-8z M272,352h8v8h-8z M320,352h8v8h-8z M328,352h8v8h-8z M336,352h8v8h-8z M344,352h8v8h-8z M352,352h8v8h-8z M360,352h8v8h-8z M368,352h8v8h-8z M376,352h8v8h-8z M384,352h8v8h-8z M392,352h8v8h-8z M400,352h8v8h-8z M408,352h8v8h-8z M416,352h8v8h-8z M424,352h8v8h-8z M432,352h8v8h-8z M440,352h8v8h-8z M448,352h8v8h-8z M456,352h8v8h-8z M464,352h8v8h-8z M472,352h8v8h-8z M480,352h8v8h-8z M488,352h8v8h-8z M496,352h8v8h-8z M504,352h8v8h-8z M0,360h8v8h-8z M8,360h8v8h-8z M16,360h8v8h-8z M24,360h8v8h-8z M32,360h8v8h-8z M40,360h8v8h-8z M48,360h8v8h-8z M56,360h8v8h-8z M64,360h8v8h-8z M72,360h8v8h-8z M80,360h8v8h-8z M88,360h8v8h-8z M96,360h8v8h-8z M104,360h8v8h-8z M112,360h8v8h-8z M120,360h8v8h-8z M128,360h8v8h-8z M136,360h8v8h-8z M160,360h8v8h-8z M240,360h8v8h-8z M248,360h8v8h-8z M256,360h8v8h-8z M264,360h8v8h-8z M272,360h8v8h-8z M280,360h8v8h-8z M320,360h8v8h-8z M328,360h8v8h-8z M336,360h8v8h-8z M344,360h8v8h-8z M352,360h8v8h-8z M360,360h8v8h-8z M368,360h8v8h-8z M376,360h8v8h-8z M384,360h8v8h-8z M392,360h8v8h-8z M400,360h8v8h-8z M408,360h8v8h-8z M416,360h8v8h-8z M424,360h8v8h-8z M432,360h8v8h-8z M440,360h8v8h-8z M448,360h8v8h-8z M456,360h8v8h-8z M464,360h8v8h-8z M472,360h8v8h-8z M480,360h8v8h-8z M488,360h8v8h-8z M496,360h8v8h-8z M504,360h8v8h-8z M0,368h8v8h-8z M8,368h8v8h-8z M16,368h8v8h-8z M24,368h8v8h-8z M32,368h8v8h-8z M40,368h8v8h-8z M48,368h8v8h-8z M56,368h8v8h-8z M64,368h8v8h-8z M72,368h8v8h-8z M80,368h8v8h-8z M88,368h8v8h-8z M96,368h8v8h-8z M104,368h8v8h-8z M112,368h8v8h-8z M120,368h8v8h-8z M128,368h8v8h-8z M160,368h8v8h-8z M264,368h8v8h-8z M312,368h8v8h-8z M320,368h8v8h-8z M328,368h8v8h-8z M336,368h8v8h-8z M344,368h8v8h-8z M352,368h8v8h-8z M360,368h8v8h-8z M368,368h8v8h-8z M376,368h8v8h-8z M384,368h8v8h-8z M392,368h8v8h-8z M400,368h8v8h-8z M408,368h8v8h-8z M416,368h8v8h-8z M424,368h8v8h-8z M432,368h8v8h-8z M440,368h8v8h-8z M448,368h8v8h-8z M456,368h8v8h-8z M464,368h8v8h-8z M472,368h8v8h-8z M480,368h8v8h-8z M488,368h8v8h-8z M496,368h8v8h-8z M504,368h8v8h-8z M0,376h8v8h-8z M8,376h8v8h-8z M16,376h8v8h-8z M24,376h8v8h-8z M32,376h8v8h-8z M40,376h8v8h-8z M48,376h8v8h-8z M56,376h8v8h-8z M64,376h8v8h-8z M72,376h8v8h-8z M80,376h8v8h-8z M88,376h8v8h-8z M96,376h8v8h-8z M104,376h8v8h-8z M112,376h8v8h-8z M160,376h8v8h-8z M168,376h8v8h-8z M304,376h8v8h-8z M312,376h8v8h-8z M320,376h8v8h-8z M328,376h8v8h-8z M336,376h8v8h-8z M344,376h8v8h-8z M352,376h8v8h-8z M360,376h8v8h-8z M368,376h8v8h-8z M376,376h8v8h-8z M384,376h8v8h-8z M392,376h8v8h-8z M400,376h8v8h-8z M408,376h8v8h-8z M416,376h8v8h-8z M424,376h8v8h-8z M432,376h8v8h-8z M440,376h8v8h-8z M448,376h8v8h-8z M456,376h8v8h-8z M464,376h8v8h-8z M472,376h8v8h-8z M480,376h8v8h-8z M488,376h8v8h-8z M496,376h8v8h-8z M504,376h8v8h-8z M0,384h8v8h-8z M8,384h8v8h-8z M16,384h8v8h-8z M24,384h8v8h-8z M32,384h8v8h-8z M40,384h8v8h-8z M48,384h8v8h-8z M56,384h8v8h-8z M64,384h8v8h-8z M72,384h8v8h-8z M80,384h8v8h-8z M88,384h8v8h-8z M168,384h8v8h-8z M304,384h8v8h-8z M312,384h8v8h-8z M320,384h8v8h-8z M336,384h8v8h-8z M344,384h8v8h-8z M352,384h8v8h-8z M360,384h8v8h-8z M368,384h8v8h-8z M376,384h8v8h-8z M384,384h8v8h-8z M392,384h8v8h-8z M400,384h8v8h-8z M408,384h8v8h-8z M416,384h8v8h-8z M424,384h8v8h-8z M432,384h8v8h-8z M440,384h8v8h-8z M448,384h8v8h-8z M456,384h8v8h-8z M464,384h8v8h-8z M472,384h8v8h-8z M480,384h8v8h-8z M488,384h8v8h-8z M496,384h8v8h-8z M504,384h8v8h-8z M0,392h8v8h-8z M8,392h8v8h-8z M16,392h8v8h-8z M24,392h8v8h-8z M32,392h8v8h-8z M40,392h8v8h-8z M48,392h8v8h-8z M56,392h8v8h-8z M64,392h8v8h-8z M152,392h8v8h-8z M160,392h8v8h-8z M168,392h8v8h-8z M176,392h8v8h-8z M296,392h8v8h-8z M328,392h8v8h-8z M336,392h8v8h-8z M344,392h8v8h-8z M352,392h8v8h-8z M360,392h8v8h-8z M368,392h8v8h-8z M376,392h8v8h-8z M384,392h8v8h-8z M392,392h8v8h-8z M400,392h8v8h-8z M408,392h8v8h-8z M416,392h8v8h-8z M424,392h8v8h-8z M432,392h8v8h-8z M440,392h8v8h-8z M448,392h8v8h-8z M456,392h8v8h-8z M464,392h8v8h-8z M472,392h8v8h-8z M480,392h8v8h-8z M488,392h8v8h-8z M496,392h8v8h-8z M504,392h8v8h-8z M0,400h8v8h-8z M8,400h8v8h-8z M16,400h8v8h-8z M24,400h8v8h-8z M32,400h8v8h-8z M40,400h8v8h-8z M48,400h8v8h-8z M56,400h8v8h-8z M64,400h8v8h-8z M152,400h8v8h-8z M160,400h8v8h-8z M168,400h8v8h-8z M176,400h8v8h-8z M336,400h8v8h-8z M344,400h8v8h-8z M352,400h8v8h-8z M360,400h8v8h-8z M368,400h8v8h-8z M376,400h8v8h-8z M384,400h8v8h-8z M392,400h8v8h-8z M400,400h8v8h-8z M408,400h8v8h-8z M416,400h8v8h-8z M424,400h8v8h-8z M432,400h8v8h-8z M440,400h8v8h-8z M448,400h8v8h-8z M464,400h8v8h-8z M472,400h8v8h-8z M480,400h8v8h-8z M488,400h8v8h-8z M496,400h8v8h-8z M504,400h8v8h-8z M0,408h8v8h-8z M8,408h8v8h-8z M16,408h8v8h-8z M24,408h8v8h-8z M32,408h8v8h-8z M136,408h8v8h-8z M144,408h8v8h-8z M152,408h8v8h-8z M160,408h8v8h-8z M168,408h8v8h-8z M184,408h8v8h-8z M192,408h8v8h-8z M304,408h8v8h-8z M312,408h8v8h-8z M320,408h8v8h-8z M328,408h8v8h-8z M336,408h8v8h-8z M344,408h8v8h-8z M352,408h8v8h-8z M360,408h8v8h-8z M368,408h8v8h-8z M376,408h8v8h-8z M384,408h8v8h-8z M392,408h8v8h-8z M400,408h8v8h-8z M408,408h8v8h-8z M416,408h8v8h-8z M424,408h8v8h-8z M432,408h8v8h-8z M440,408h8v8h-8z M448,408h8v8h-8z M456,408h8v8h-8z M464,408h8v8h-8z M472,408h8v8h-8z M480,408h8v8h-8z M488,408h8v8h-8z M496,408h8v8h-8z M504,408h8v8h-8z M0,416h8v8h-8z M8,416h8v8h-8z M16,416h8v8h-8z M128,416h8v8h-8z M136,416h8v8h-8z M144,416h8v8h-8z M152,416h8v8h-8z M160,416h8v8h-8z M168,416h8v8h-8z M176,416h8v8h-8z M184,416h8v8h-8z M192,416h8v8h-8z M200,416h8v8h-8z M296,416h8v8h-8z M304,416h8v8h-8z M312,416h8v8h-8z M320,416h8v8h-8z M328,416h8v8h-8z M336,416h8v8h-8z M344,416h8v8h-8z M352,416h8v8h-8z M360,416h8v8h-8z M368,416h8v8h-8z M376,416h8v8h-8z M384,416h8v8h-8z M392,416h8v8h-8z M400,416h8v8h-8z M408,416h8v8h-8z M416,416h8v8h-8z M424,416h8v8h-8z M432,416h8v8h-8z M440,416h8v8h-8z M448,416h8v8h-8z M456,416h8v8h-8z M464,416h8v8h-8z M472,416h8v8h-8z M480,416h8v8h-8z M488,416h8v8h-8z M496,416h8v8h-8z M504,416h8v8h-8z M0,424h8v8h-8z M120,424h8v8h-8z M128,424h8v8h-8z M176,424h8v8h-8z M184,424h8v8h-8z M192,424h8v8h-8z M200,424h8v8h-8z M208,424h8v8h-8z M288,424h8v8h-8z M296,424h8v8h-8z M304,424h8v8h-8z M312,424h8v8h-8z M320,424h8v8h-8z M328,424h8v8h-8z M336,424h8v8h-8z M344,424h8v8h-8z M352,424h8v8h-8z M360,424h8v8h-8z M368,424h8v8h-8z M376,424h8v8h-8z M384,424h8v8h-8z M392,424h8v8h-8z M400,424h8v8h-8z M408,424h8v8h-8z M416,424h8v8h-8z M424,424h8v8h-8z M432,424h8v8h-8z M440,424h8v8h-8z M448,424h8v8h-8z M456,424h8v8h-8z M464,424h8v8h-8z M472,424h8v8h-8z M480,424h8v8h-8z M488,424h8v8h-8z M496,424h8v8h-8z M504,424h8v8h-8z M208,432h8v8h-8z M216,432h8v8h-8z M272,432h8v8h-8z M280,432h8v8h-8z M288,432h8v8h-8z M296,432h8v8h-8z M304,432h8v8h-8z M312,432h8v8h-8z M320,432h8v8h-8z M328,432h8v8h-8z M336,432h8v8h-8z M344,432h8v8h-8z M352,432h8v8h-8z M360,432h8v8h-8z M368,432h8v8h-8z M376,432h8v8h-8z M384,432h8v8h-8z M392,432h8v8h-8z M400,432h8v8h-8z M408,432h8v8h-8z M416,432h8v8h-8z M424,432h8v8h-8z M432,432h8v8h-8z M440,432h8v8h-8z M448,432h8v8h-8z M456,432h8v8h-8z M464,432h8v8h-8z M472,432h8v8h-8z M480,432h8v8h-8z M488,432h8v8h-8z M496,432h8v8h-8z M504,432h8v8h-8z M216,440h8v8h-8z M224,440h8v8h-8z M264,440h8v8h-8z M272,440h8v8h-8z M280,440h8v8h-8z M288,440h8v8h-8z M296,440h8v8h-8z M304,440h8v8h-8z M312,440h8v8h-8z M320,440h8v8h-8z M424,440h8v8h-8z M432,440h8v8h-8z M440,440h8v8h-8z M448,440h8v8h-8z M456,440h8v8h-8z M464,440h8v8h-8z M472,440h8v8h-8z M480,440h8v8h-8z M488,440h8v8h-8z M496,440h8v8h-8z M504,440h8v8h-8z M216,448h8v8h-8z M224,448h8v8h-8z M264,448h8v8h-8z M272,448h8v8h-8z M280,448h8v8h-8z M288,448h8v8h-8z M296,448h8v8h-8z M304,448h8v8h-8z M312,448h8v8h-8z M320,448h8v8h-8z M344,448h8v8h-8z M360,448h8v8h-8z M376,448h8v8h-8z M400,448h8v8h-8z M424,448h8v8h-8z M432,448h8v8h-8z M440,448h8v8h-8z M448,448h8v8h-8z M456,448h8v8h-8z M464,448h8v8h-8z M472,448h8v8h-8z M480,448h8v8h-8z M488,448h8v8h-8z M496,448h8v8h-8z M504,448h8v8h-8z M224,456h8v8h-8z M256,456h8v8h-8z M264,456h8v8h-8z M272,456h8v8h-8z M280,456h8v8h-8z M288,456h8v8h-8z M296,456h8v8h-8z M336,456h8v8h-8z M360,456h8v8h-8z M384,456h8v8h-8z M400,456h8v8h-8z M416,456h8v8h-8z M440,456h8v8h-8z M464,456h8v8h-8z M472,456h8v8h-8z M480,456h8v8h-8z M488,456h8v8h-8z M496,456h8v8h-8z M504,456h8v8h-8z M24,464h8v8h-8z M224,464h8v8h-8z M248,464h8v8h-8z M256,464h8v8h-8z M264,464h8v8h-8z M272,464h8v8h-8z M280,464h8v8h-8z M296,464h8v8h-8z M312,464h8v8h-8z M360,464h8v8h-8z M368,464h8v8h-8z M400,464h8v8h-8z M416,464h8v8h-8z M424,464h8v8h-8z M432,464h8v8h-8z M440,464h8v8h-8z M448,464h8v8h-8z M472,464h8v8h-8z M480,464h8v8h-8z M488,464h8v8h-8z M496,464h8v8h-8z M504,464h8v8h-8z M24,472h8v8h-8z M48,472h8v8h-8z M56,472h8v8h-8z M232,472h8v8h-8z M240,472h8v8h-8z M248,472h8v8h-8z M256,472h8v8h-8z M264,472h8v8h-8z M304,472h8v8h-8z M328,472h8v8h-8z M352,472h8v8h-8z M384,472h8v8h-8z M392,472h8v8h-8z M408,472h8v8h-8z M440,472h8v8h-8z M456,472h8v8h-8z M472,472h8v8h-8z M480,472h8v8h-8z M488,472h8v8h-8z M496,472h8v8h-8z M504,472h8v8h-8z M24,480h8v8h-8z M48,480h8v8h-8z M56,480h8v8h-8z M224,480h8v8h-8z M232,480h8v8h-8z M240,480h8v8h-8z M248,480h8v8h-8z M256,480h8v8h-8z M264,480h8v8h-8z M296,480h8v8h-8z M304,480h8v8h-8z M312,480h8v8h-8z M320,480h8v8h-8z M344,480h8v8h-8z M384,480h8v8h-8z M392,480h8v8h-8z M416,480h8v8h-8z M432,480h8v8h-8z M440,480h8v8h-8z M448,480h8v8h-8z M456,480h8v8h-8z M464,480h8v8h-8z M472,480h8v8h-8z M480,480h8v8h-8z M488,480h8v8h-8z M496,480h8v8h-8z M504,480h8v8h-8z M24,488h8v8h-8z M56,488h8v8h-8z M224,488h8v8h-8z M232,488h8v8h-8z M240,488h8v8h-8z M248,488h8v8h-8z M256,488h8v8h-8z M264,488h8v8h-8z M272,488h8v8h-8z M288,488h8v8h-8z M296,488h8v8h-8z M304,488h8v8h-8z M328,488h8v8h-8z M344,488h8v8h-8z M352,488h8v8h-8z M360,488h8v8h-8z M376,488h8v8h-8z M384,488h8v8h-8z M392,488h8v8h-8z M400,488h8v8h-8z M448,488h8v8h-8z M456,488h8v8h-8z M472,488h8v8h-8z M480,488h8v8h-8z M488,488h8v8h-8z M496,488h8v8h-8z M504,488h8v8h-8z M24,496h8v8h-8z M32,496h8v8h-8z M48,496h8v8h-8z M56,496h8v8h-8z M224,496h8v8h-8z M232,496h8v8h-8z M240,496h8v8h-8z M280,496h8v8h-8z M304,496h8v8h-8z M320,496h8v8h-8z M336,496h8v8h-8z M344,496h8v8h-8z M360,496h8v8h-8z M392,496h8v8h-8z M408,496h8v8h-8z M416,496h8v8h-8z M432,496h8v8h-8z M440,496h8v8h-8z M464,496h8v8h-8z M472,496h8v8h-8z M480,496h8v8h-8z M488,496h8v8h-8z M496,496h8v8h-8z M504,496h8v8h-8z M24,504h8v8h-8z M224,504h8v8h-8z M232,504h8v8h-8z M256,504h8v8h-8z M272,504h8v8h-8z M288,504h8v8h-8z M312,504h8v8h-8z M320,504h8v8h-8z M328,504h8v8h-8z M336,504h8v8h-8z M352,504h8v8h-8z M360,504h8v8h-8z M464,504h8v8h-8z M472,504h8v8h-8z M480,504h8v8h-8z M488,504h8v8h-8z M496,504h8v8h-8z M504,504h8v8h-8z"/></svg>